# xmcd
#
# Track frame offsets: 
#        150
#        12721
#        27426
#        41830
#        55093
#        65756
#        77460
#        88807
#        101209
#        116057
#        128462
#        138150
#        149533
#        159711
#        169227
#        186433
#        206819
#        221836
#        237116
#        249148
#        261367
#        277333
#        292258
#        307412
#
# Disc length: 4274 seconds
#
# Revision: 0
# Processed by: cddbd v1.5.2PL0 Copyright (c) Steve Scherf et al.
# Submitted via: ExactAudioCopy v0.99pb4
#
DISCID=8610b018
DTITLE=Various Artist - Afro
DYEAR=2010
DGENRE=Soul
TTITLE0=Mavis Staples - Security
TTITLE1=Millie Jackson - Breakaway
TTITLE2=Ernie Hines - Help Me Put Out the Flames (In My Heart)
TTITLE3=Doris Troy - Jacob's Ladder
TTITLE4=Carla Thomas - Where Do I Go
TTITLE5=Freda Payne - The Easiest Way to Fall
TTITLE6=Erma Franklin - Piece of My Heart
TTITLE7=Luther Allison - Part Time Love
TTITLE8=Marie Queenie Lyons - See and Don't See
TTITLE9=Ike and Tina Turner - Rock Me Baby
TTITLE10=Ruth Brown - Try Me and See
TTITLE11=Irma Thomas - Cheater Man
TTITLE12=Johnnie Taylor - I Could Never Be President
TTITLE13=Doris Duke - I Can't Do Without You
TTITLE14=Bobby Womack and Peace - Across 100th Street
TTITLE15=Isaac Hayes - Walk On By
TTITLE16=Esther Phillips - Home Is Where the Hatred Is
TTITLE17=Veda Brown - I Know It's Not Right
TTITLE18=Ann Peebles - (You Keep Me) Hangin' On
TTITLE19=Hot Sauce - What Do You See in Her?
TTITLE20=Shirley Bassey - Light My Fire
TTITLE21=Joe Hicks - Ruby Dean
TTITLE22=The Dramatics - In the Rain
TTITLE23=Marlena Shaw - California Soul
EXTD=
EXTT0=
EXTT1=
EXTT2=
EXTT3=
EXTT4=
EXTT5=
EXTT6=
EXTT7=
EXTT8=
EXTT9=
EXTT10=
EXTT11=
EXTT12=
EXTT13=
EXTT14=
EXTT15=
EXTT16=
EXTT17=
EXTT18=
EXTT19=
EXTT20=
EXTT21=
EXTT22=
EXTT23=
PLAYORDER=
